<svg xmlns="http://www.w3.org/2000/svg" xmlns:xlink="http://www.w3.org/1999/xlink" version="1.1" width="256" height="256" viewBox="0 0 256 256" xml:space="preserve">

<defs>
</defs>
<g style="stroke: none; stroke-width: 0; stroke-dasharray: none; stroke-linecap: butt; stroke-linejoin: miter; stroke-miterlimit: 10; fill: none; fill-rule: nonzero; opacity: 1;" transform="translate(1.4065934065934016 1.4065934065934016) scale(2.81 2.81)" >
	<circle cx="45.004999999999995" cy="45.004999999999995" r="42.955" style="stroke: none; stroke-width: 1; stroke-dasharray: none; stroke-linecap: butt; stroke-linejoin: miter; stroke-miterlimit: 10; fill: rgb(255,210,65); fill-rule: nonzero; opacity: 1;" transform="  matrix(1 0 0 1 0 0) "/>
	<path d="M 45 90 C 20.187 90 0 69.813 0 45 S 20.187 0 45 0 s 45 20.187 45 45 S 69.813 90 45 90 z M 45 4.091 C 22.443 4.091 4.091 22.443 4.091 45 c 0 22.557 18.352 40.909 40.909 40.909 c 22.557 0 40.909 -18.352 40.909 -40.909 C 85.909 22.443 67.557 4.091 45 4.091 z" style="stroke: none; stroke-width: 1; stroke-dasharray: none; stroke-linecap: butt; stroke-linejoin: miter; stroke-miterlimit: 10; fill: rgb(0,0,0); fill-rule: nonzero; opacity: 1;" transform=" matrix(1 0 0 1 0 0) " stroke-linecap="round" />
	<path d="M 63.241 71.329 c -0.455 0 -0.914 -0.151 -1.293 -0.461 C 57.179 66.97 51.159 64.822 45 64.822 s -12.178 2.147 -16.948 6.045 c -0.874 0.715 -2.163 0.584 -2.878 -0.29 c -0.715 -0.875 -0.585 -2.163 0.29 -2.878 C 30.961 63.206 37.9 60.731 45 60.731 c 7.101 0 14.04 2.475 19.537 6.968 c 0.875 0.715 1.005 2.004 0.29 2.878 C 64.422 71.073 63.834 71.329 63.241 71.329 z" style="stroke: none; stroke-width: 1; stroke-dasharray: none; stroke-linecap: butt; stroke-linejoin: miter; stroke-miterlimit: 10; fill: rgb(0,0,0); fill-rule: nonzero; opacity: 1;" transform=" matrix(1 0 0 1 0 0) " stroke-linecap="round" />
	<path d="M 24.288 46.55 c -0.212 0 -0.423 -0.004 -0.635 -0.013 c -1.129 -0.044 -2.009 -0.994 -1.965 -2.123 c 0.044 -1.129 1.012 -1.997 2.123 -1.965 c 2.893 0.115 5.627 -0.747 7.931 -2.484 c 2.303 -1.738 3.883 -4.138 4.567 -6.942 c 0.268 -1.098 1.369 -1.773 2.472 -1.502 c 1.097 0.268 1.77 1.375 1.502 2.472 c -0.898 3.677 -3.056 6.958 -6.078 9.238 C 31.353 45.383 27.853 46.55 24.288 46.55 z" style="stroke: none; stroke-width: 1; stroke-dasharray: none; stroke-linecap: butt; stroke-linejoin: miter; stroke-miterlimit: 10; fill: rgb(0,0,0); fill-rule: nonzero; opacity: 1;" transform=" matrix(1 0 0 1 0 0) " stroke-linecap="round" />
	<path d="M 65.712 46.55 c -3.566 0 -7.065 -1.167 -9.918 -3.319 c -3.021 -2.279 -5.181 -5.56 -6.078 -9.238 c -0.269 -1.097 0.403 -2.204 1.501 -2.472 c 1.095 -0.268 2.204 0.404 2.472 1.502 c 0.686 2.805 2.265 5.205 4.568 6.942 c 2.303 1.738 5.055 2.6 7.93 2.484 c 1.18 -0.037 2.08 0.836 2.123 1.965 c 0.044 1.129 -0.835 2.079 -1.964 2.123 C 66.136 46.546 65.924 46.55 65.712 46.55 z" style="stroke: none; stroke-width: 1; stroke-dasharray: none; stroke-linecap: butt; stroke-linejoin: miter; stroke-miterlimit: 10; fill: rgb(0,0,0); fill-rule: nonzero; opacity: 1;" transform=" matrix(1 0 0 1 0 0) " stroke-linecap="round" />
</g>
</svg>