<svg xmlns="http://www.w3.org/2000/svg" xmlns:xlink="http://www.w3.org/1999/xlink" version="1.1" width="256" height="256" viewBox="0 0 256 256" xml:space="preserve">

<defs>
</defs>
<g style="stroke: none; stroke-width: 0; stroke-dasharray: none; stroke-linecap: butt; stroke-linejoin: miter; stroke-miterlimit: 10; fill: none; fill-rule: nonzero; opacity: 1;" transform="translate(1.4065934065934016 1.4065934065934016) scale(2.81 2.81)" >
	<path d="M 45 90 C 21.578 90 2.522 70.944 2.522 47.521 C 2.522 24.099 21.578 5.044 45 5.044 c 1.657 0 3 1.343 3 3 s -1.343 3 -3 3 c -20.114 0 -36.478 16.364 -36.478 36.478 C 8.522 67.636 24.886 84 45 84 c 1.657 0 3 1.343 3 3 S 46.657 90 45 90 z" style="stroke: none; stroke-width: 1; stroke-dasharray: none; stroke-linecap: butt; stroke-linejoin: miter; stroke-miterlimit: 10; fill: rgb(0,0,0); fill-rule: nonzero; opacity: 1;" transform=" matrix(1 0 0 1 0 0) " stroke-linecap="round" />
	<path d="M 54.312 12.148 c -0.233 0 -0.472 -0.027 -0.709 -0.085 l -0.454 -0.107 c -1.615 -0.37 -2.624 -1.979 -2.254 -3.594 c 0.371 -1.616 1.985 -2.624 3.594 -2.254 l 0.528 0.125 c 1.61 0.391 2.599 2.012 2.208 3.623 C 56.893 11.228 55.664 12.148 54.312 12.148 z" style="stroke: none; stroke-width: 1; stroke-dasharray: none; stroke-linecap: butt; stroke-linejoin: miter; stroke-miterlimit: 10; fill: rgb(0,0,0); fill-rule: nonzero; opacity: 1;" transform=" matrix(1 0 0 1 0 0) " stroke-linecap="round" />
	<path d="M 63.352 85.487 c -1.079 0 -2.121 -0.584 -2.658 -1.604 c -0.771 -1.467 -0.207 -3.281 1.259 -4.052 c 0.263 -0.138 0.523 -0.279 0.782 -0.424 c 1.448 -0.808 3.274 -0.287 4.081 1.159 c 0.807 1.447 0.288 3.274 -1.159 4.081 c -0.302 0.168 -0.605 0.333 -0.911 0.494 C 64.3 85.376 63.821 85.487 63.352 85.487 z M 71.973 79.352 c -0.801 0 -1.599 -0.318 -2.189 -0.948 c -1.134 -1.209 -1.072 -3.107 0.137 -4.24 c 0.217 -0.204 0.433 -0.41 0.645 -0.619 c 1.183 -1.162 3.081 -1.145 4.243 0.036 c 1.161 1.182 1.145 3.081 -0.036 4.243 c -0.247 0.242 -0.496 0.481 -0.748 0.717 C 73.444 79.083 72.708 79.352 71.973 79.352 z M 78.664 71.149 c -0.534 0 -1.074 -0.143 -1.563 -0.441 c -1.413 -0.865 -1.857 -2.712 -0.992 -4.125 c 0.156 -0.256 0.311 -0.513 0.461 -0.772 c 0.834 -1.432 2.672 -1.916 4.103 -1.083 c 1.432 0.834 1.916 2.671 1.083 4.103 c -0.174 0.297 -0.35 0.593 -0.529 0.886 C 80.66 70.64 79.674 71.149 78.664 71.149 z M 82.944 61.466 c -0.271 0 -0.548 -0.037 -0.821 -0.115 c -1.594 -0.452 -2.52 -2.111 -2.066 -3.705 c 0.082 -0.29 0.163 -0.583 0.24 -0.876 c 0.421 -1.602 2.056 -2.562 3.663 -2.14 c 1.603 0.42 2.561 2.061 2.14 3.663 c -0.087 0.332 -0.178 0.662 -0.271 0.991 C 85.453 60.604 84.251 61.466 82.944 61.466 z M 84.477 50.986 c -0.013 0 -0.026 0 -0.039 0 c -1.656 -0.021 -2.982 -1.381 -2.962 -3.038 l 0.003 -0.427 l -0.003 -0.465 c -0.02 -1.657 1.309 -3.016 2.965 -3.035 c 0.012 0 0.024 0 0.036 0 c 1.641 0 2.979 1.32 2.999 2.965 l 0.003 0.535 l -0.003 0.503 C 87.454 49.668 86.115 50.986 84.477 50.986 z M 83.188 40.48 c -1.329 0 -2.544 -0.89 -2.898 -2.236 c -0.076 -0.289 -0.155 -0.575 -0.237 -0.86 c -0.46 -1.592 0.457 -3.255 2.049 -3.715 c 1.595 -0.46 3.256 0.458 3.715 2.05 c 0.096 0.33 0.187 0.662 0.274 0.995 c 0.423 1.602 -0.533 3.244 -2.136 3.666 C 83.698 40.447 83.44 40.48 83.188 40.48 z M 79.153 30.701 c -1.033 0 -2.038 -0.534 -2.596 -1.491 c -0.149 -0.258 -0.303 -0.514 -0.459 -0.767 c -0.867 -1.412 -0.426 -3.259 0.986 -4.126 c 1.412 -0.867 3.261 -0.425 4.127 0.986 c 0.18 0.293 0.356 0.589 0.531 0.888 c 0.833 1.432 0.349 3.268 -1.083 4.102 C 80.186 30.57 79.666 30.701 79.153 30.701 z M 72.651 22.345 c -0.759 0 -1.517 -0.286 -2.101 -0.858 c -0.212 -0.208 -0.427 -0.413 -0.644 -0.616 c -1.212 -1.131 -1.276 -3.029 -0.146 -4.24 c 1.129 -1.21 3.028 -1.277 4.239 -0.146 c 0.254 0.236 0.504 0.476 0.751 0.719 c 1.183 1.16 1.201 3.06 0.041 4.242 C 74.206 22.044 73.429 22.345 72.651 22.345 z M 64.171 16.005 c -0.492 0 -0.992 -0.122 -1.454 -0.378 c -0.262 -0.146 -0.524 -0.288 -0.789 -0.427 c -1.467 -0.771 -2.031 -2.584 -1.26 -4.051 c 0.771 -1.465 2.582 -2.032 4.051 -1.259 c 0.306 0.161 0.609 0.325 0.911 0.493 c 1.449 0.804 1.971 2.631 1.167 4.079 C 66.248 15.448 65.226 16.005 64.171 16.005 z" style="stroke: none; stroke-width: 1; stroke-dasharray: none; stroke-linecap: butt; stroke-linejoin: miter; stroke-miterlimit: 10; fill: rgb(0,0,0); fill-rule: nonzero; opacity: 1;" transform=" matrix(1 0 0 1 0 0) " stroke-linecap="round" />
	<path d="M 53.816 89.013 c -1.367 0 -2.604 -0.941 -2.922 -2.332 c -0.369 -1.614 0.641 -3.224 2.255 -3.594 l 0.453 -0.107 c 1.606 -0.385 3.23 0.603 3.62 2.214 c 0.388 1.611 -0.604 3.231 -2.214 3.62 l -0.52 0.123 C 54.264 88.987 54.038 89.013 53.816 89.013 z" style="stroke: none; stroke-width: 1; stroke-dasharray: none; stroke-linecap: butt; stroke-linejoin: miter; stroke-miterlimit: 10; fill: rgb(0,0,0); fill-rule: nonzero; opacity: 1;" transform=" matrix(1 0 0 1 0 0) " stroke-linecap="round" />
	<path d="M 62.637 68.158 c -0.768 0 -1.535 -0.293 -2.121 -0.879 L 42.879 49.643 C 42.316 49.08 42 48.317 42 47.521 V 26.784 c 0 -1.657 1.343 -3 3 -3 c 1.657 0 3 1.343 3 3 v 19.496 l 16.758 16.758 c 1.172 1.171 1.172 3.071 0 4.242 C 64.172 67.865 63.404 68.158 62.637 68.158 z" style="stroke: none; stroke-width: 1; stroke-dasharray: none; stroke-linecap: butt; stroke-linejoin: miter; stroke-miterlimit: 10; fill: rgb(48,79,255); fill-rule: nonzero; opacity: 1;" transform=" matrix(1 0 0 1 0 0) " stroke-linecap="round" />
	<path d="M 39.954 17.292 c -0.662 0 -1.328 -0.218 -1.882 -0.666 c -1.29 -1.041 -1.491 -2.929 -0.45 -4.219 l 3.159 -3.913 l -3.914 -3.16 c -1.289 -1.041 -1.49 -2.929 -0.449 -4.219 c 1.041 -1.289 2.929 -1.491 4.219 -0.449 l 6.248 5.044 c 1.289 1.041 1.49 2.929 0.449 4.219 l -5.044 6.248 C 41.698 16.91 40.83 17.292 39.954 17.292 z" style="stroke: none; stroke-width: 1; stroke-dasharray: none; stroke-linecap: butt; stroke-linejoin: miter; stroke-miterlimit: 10; fill: rgb(0,0,0); fill-rule: nonzero; opacity: 1;" transform=" matrix(1 0 0 1 0 0) " stroke-linecap="round" />
</g>
</svg>